<svg width="1440" height="219" viewBox="0 0 1440 219" fill="none" xmlns="http://www.w3.org/2000/svg">
<path fill-rule="evenodd" clip-rule="evenodd" d="M474.027 0.810016L767.262 4.14009C776.47 4.24468 784.417 10.6239 786.511 19.5913L801.142 82.2417H1420C1431.05 82.2417 1440 91.196 1440 102.242V198.867C1440 209.912 1431.05 218.867 1420 218.867H20C8.95444 218.867 0.000214165 209.912 0 198.867V102.242C0 91.196 8.95431 82.2417 20 82.2417H433.759L454.702 14.8715C457.327 6.42759 465.185 0.709645 474.027 0.810016Z" fill="#925E78"/>
<path d="M559.7 56.9298V37.3298H566.588C567.969 37.3298 569.108 37.5538 570.004 38.0018C570.919 38.4311 571.6 39.0285 572.048 39.7938C572.496 40.5405 572.72 41.3805 572.72 42.3138C572.72 43.3218 572.496 44.1618 572.048 44.8338C571.619 45.5058 571.049 46.0191 570.34 46.3738C569.649 46.7285 568.912 46.9431 568.128 47.0178L568.52 46.7378C569.36 46.7565 570.135 46.9805 570.844 47.4098C571.553 47.8391 572.113 48.4178 572.524 49.1458C572.953 49.8738 573.168 50.6858 573.168 51.5818C573.168 52.5711 572.925 53.4765 572.44 54.2978C571.955 55.1005 571.236 55.7445 570.284 56.2298C569.351 56.6965 568.193 56.9298 566.812 56.9298H559.7ZM562.052 54.9698H566.56C567.885 54.9698 568.912 54.6618 569.64 54.0458C570.387 53.4111 570.76 52.5338 570.76 51.4138C570.76 50.3125 570.377 49.4351 569.612 48.7818C568.865 48.1098 567.829 47.7738 566.504 47.7738H562.052V54.9698ZM562.052 45.8978H566.42C567.689 45.8978 568.651 45.5991 569.304 45.0018C569.976 44.4045 570.312 43.5925 570.312 42.5658C570.312 41.5765 569.976 40.7831 569.304 40.1858C568.651 39.5885 567.661 39.2898 566.336 39.2898H562.052V45.8978ZM576.431 56.9298V42.8178H578.559L578.727 45.5058C579.044 44.8711 579.446 44.3298 579.931 43.8818C580.435 43.4338 581.032 43.0885 581.723 42.8458C582.432 42.6031 583.235 42.4818 584.131 42.4818V44.9458H583.263C582.666 44.9458 582.096 45.0298 581.555 45.1978C581.014 45.3471 580.528 45.5991 580.099 45.9538C579.688 46.3085 579.362 46.7938 579.119 47.4098C578.895 48.0071 578.783 48.7538 578.783 49.6498V56.9298H576.431ZM591.386 57.2658C590.248 57.2658 589.296 57.0698 588.53 56.6778C587.765 56.2671 587.196 55.7351 586.822 55.0818C586.449 54.4098 586.262 53.6818 586.262 52.8978C586.262 51.9458 586.505 51.1431 586.99 50.4898C587.494 49.8178 588.194 49.3138 589.09 48.9778C590.005 48.6231 591.078 48.4458 592.31 48.4458H596.034C596.034 47.5685 595.894 46.8405 595.614 46.2618C595.353 45.6645 594.961 45.2165 594.438 44.9178C593.934 44.6191 593.3 44.4698 592.534 44.4698C591.638 44.4698 590.864 44.6938 590.21 45.1418C589.557 45.5898 589.156 46.2525 589.006 47.1298H586.598C586.71 46.1218 587.046 45.2818 587.606 44.6098C588.185 43.9191 588.913 43.3965 589.79 43.0418C590.668 42.6685 591.582 42.4818 592.534 42.4818C593.841 42.4818 594.924 42.7245 595.782 43.2098C596.66 43.6765 597.313 44.3391 597.742 45.1978C598.172 46.0378 598.386 47.0365 598.386 48.1938V56.9298H596.286L596.146 54.4378C595.96 54.8298 595.717 55.2031 595.418 55.5578C595.138 55.8938 594.802 56.1925 594.41 56.4538C594.018 56.6965 593.57 56.8925 593.066 57.0418C592.581 57.1911 592.021 57.2658 591.386 57.2658ZM591.75 55.2778C592.404 55.2778 592.992 55.1471 593.514 54.8858C594.056 54.6058 594.513 54.2325 594.886 53.7658C595.26 53.2805 595.54 52.7485 595.726 52.1698C595.932 51.5911 596.034 50.9845 596.034 50.3498V50.2658H592.506C591.592 50.2658 590.854 50.3778 590.294 50.6018C589.734 50.8071 589.333 51.1058 589.09 51.4978C588.848 51.8711 588.726 52.3005 588.726 52.7858C588.726 53.2898 588.838 53.7285 589.062 54.1018C589.305 54.4751 589.65 54.7645 590.098 54.9698C590.565 55.1751 591.116 55.2778 591.75 55.2778ZM602.025 56.9298V42.8178H604.153L604.265 45.2818C604.713 44.4045 605.347 43.7231 606.169 43.2378C607.009 42.7338 607.961 42.4818 609.025 42.4818C610.126 42.4818 611.078 42.7058 611.881 43.1538C612.683 43.5831 613.309 44.2458 613.757 45.1418C614.205 46.0191 614.429 47.1391 614.429 48.5018V56.9298H612.077V48.7538C612.077 47.3351 611.759 46.2711 611.125 45.5618C610.509 44.8525 609.631 44.4978 608.493 44.4978C607.709 44.4978 607.009 44.6938 606.393 45.0858C605.777 45.4591 605.282 46.0098 604.909 46.7378C604.554 47.4471 604.377 48.3338 604.377 49.3978V56.9298H602.025ZM624.319 57.2658C622.956 57.2658 621.762 56.9485 620.735 56.3138C619.708 55.6605 618.915 54.7738 618.355 53.6538C617.795 52.5338 617.515 51.2645 617.515 49.8458C617.515 48.4271 617.795 47.1671 618.355 46.0658C618.915 44.9458 619.708 44.0685 620.735 43.4338C621.78 42.7991 622.984 42.4818 624.347 42.4818C625.504 42.4818 626.512 42.7151 627.371 43.1818C628.248 43.6485 628.92 44.3018 629.387 45.1418V36.7698H631.739V56.9298H629.611L629.415 54.6058C629.116 55.0725 628.734 55.5111 628.267 55.9218C627.8 56.3138 627.24 56.6405 626.587 56.9018C625.934 57.1445 625.178 57.2658 624.319 57.2658ZM624.599 55.2218C625.532 55.2218 626.354 54.9978 627.063 54.5498C627.772 54.1018 628.323 53.4858 628.715 52.7018C629.107 51.8991 629.303 50.9565 629.303 49.8738C629.303 48.8098 629.107 47.8765 628.715 47.0738C628.323 46.2711 627.772 45.6458 627.063 45.1978C626.354 44.7498 625.532 44.5258 624.599 44.5258C623.684 44.5258 622.872 44.7498 622.163 45.1978C621.454 45.6458 620.903 46.2711 620.511 47.0738C620.119 47.8765 619.923 48.8098 619.923 49.8738C619.923 50.9565 620.119 51.8991 620.511 52.7018C620.903 53.4858 621.454 54.1018 622.163 54.5498C622.872 54.9978 623.684 55.2218 624.599 55.2218ZM635.882 56.9298V42.8178H638.234V56.9298H635.882ZM637.058 39.8218C636.591 39.8218 636.199 39.6725 635.882 39.3738C635.583 39.0565 635.434 38.6645 635.434 38.1978C635.434 37.7311 635.583 37.3578 635.882 37.0778C636.199 36.7791 636.591 36.6298 637.058 36.6298C637.506 36.6298 637.888 36.7791 638.206 37.0778C638.523 37.3578 638.682 37.7311 638.682 38.1978C638.682 38.6645 638.523 39.0565 638.206 39.3738C637.888 39.6725 637.506 39.8218 637.058 39.8218ZM642.384 56.9298V42.8178H644.512L644.624 45.2818C645.072 44.4045 645.707 43.7231 646.528 43.2378C647.368 42.7338 648.32 42.4818 649.384 42.4818C650.486 42.4818 651.438 42.7058 652.24 43.1538C653.043 43.5831 653.668 44.2458 654.116 45.1418C654.564 46.0191 654.788 47.1391 654.788 48.5018V56.9298H652.436V48.7538C652.436 47.3351 652.119 46.2711 651.484 45.5618C650.868 44.8525 649.991 44.4978 648.852 44.4978C648.068 44.4978 647.368 44.6938 646.752 45.0858C646.136 45.4591 645.642 46.0098 645.268 46.7378C644.914 47.4471 644.736 48.3338 644.736 49.3978V56.9298H642.384ZM664.034 63.4258C662.765 63.4258 661.636 63.2578 660.646 62.9218C659.676 62.6045 658.92 62.1098 658.378 61.4378C657.837 60.7658 657.566 59.9351 657.566 58.9458C657.566 58.5165 657.65 58.0591 657.818 57.5738C658.005 57.0885 658.313 56.6125 658.742 56.1458C659.19 55.6791 659.816 55.2591 660.618 54.8858L662.242 55.8378C661.253 56.2485 660.609 56.7151 660.31 57.2378C660.012 57.7791 659.862 58.2738 659.862 58.7218C659.862 59.3378 660.04 59.8511 660.394 60.2618C660.749 60.6725 661.244 60.9805 661.878 61.1858C662.513 61.3911 663.232 61.4938 664.034 61.4938C664.837 61.4938 665.528 61.3818 666.106 61.1578C666.685 60.9338 667.133 60.6165 667.45 60.2058C667.768 59.7951 667.926 59.3098 667.926 58.7498C667.926 58.0965 667.684 57.5458 667.198 57.0978C666.713 56.6685 665.789 56.4165 664.426 56.3418C663.325 56.2671 662.401 56.1645 661.654 56.0338C660.908 55.9031 660.292 55.7538 659.806 55.5858C659.321 55.3991 658.91 55.1938 658.574 54.9698C658.257 54.7458 657.968 54.5125 657.706 54.2698V53.6258L660.422 50.9378L662.466 51.6658L659.666 54.1858L660.03 53.2058C660.236 53.3551 660.432 53.4951 660.618 53.6258C660.805 53.7565 661.057 53.8685 661.374 53.9618C661.692 54.0551 662.13 54.1391 662.69 54.2138C663.269 54.2885 664.025 54.3631 664.958 54.4378C666.246 54.5311 667.273 54.7551 668.038 55.1098C668.822 55.4645 669.382 55.9405 669.718 56.5378C670.073 57.1351 670.25 57.8445 670.25 58.6658C670.25 59.4685 670.026 60.2245 669.578 60.9338C669.149 61.6618 668.477 62.2591 667.562 62.7258C666.648 63.1925 665.472 63.4258 664.034 63.4258ZM664.006 52.5058C662.83 52.5058 661.822 52.2818 660.982 51.8338C660.161 51.3858 659.536 50.7885 659.106 50.0418C658.677 49.2765 658.462 48.4271 658.462 47.4938C658.462 46.5605 658.677 45.7205 659.106 44.9738C659.554 44.2271 660.189 43.6298 661.01 43.1818C661.832 42.7151 662.83 42.4818 664.006 42.4818C665.182 42.4818 666.181 42.7151 667.002 43.1818C667.824 43.6298 668.449 44.2271 668.878 44.9738C669.308 45.7205 669.522 46.5605 669.522 47.4938C669.522 48.4271 669.308 49.2765 668.878 50.0418C668.449 50.7885 667.824 51.3858 667.002 51.8338C666.181 52.2818 665.182 52.5058 664.006 52.5058ZM664.006 50.5738C665.014 50.5738 665.808 50.3125 666.386 49.7898C666.965 49.2671 667.254 48.5018 667.254 47.4938C667.254 46.5045 666.965 45.7485 666.386 45.2258C665.808 44.7031 665.014 44.4418 664.006 44.4418C663.017 44.4418 662.214 44.7031 661.598 45.2258C661.001 45.7485 660.702 46.5045 660.702 47.4938C660.702 48.5018 661.001 49.2671 661.598 49.7898C662.196 50.3125 662.998 50.5738 664.006 50.5738ZM666.302 44.8058L665.602 42.8178H671.37V44.5818L666.302 44.8058Z" fill="#E6D6C6"/>
</svg>
