<svg width="1440" height="185" viewBox="0 0 1440 185" fill="none" xmlns="http://www.w3.org/2000/svg">
<path d="M516.011 2.59253C524.761 2.66928 532.446 8.42545 534.979 16.8015L548.917 62.8875H1420C1431.05 62.8876 1440 71.8419 1440 82.8875V164.887C1440 175.933 1431.05 184.887 1420 184.887H20C8.95431 184.887 0 175.933 0 164.887V82.8875C6.48811e-05 71.8418 8.95435 62.8875 20 62.8875H181.536L201.81 12.531C204.882 4.90037 212.313 -0.0714093 220.538 0.000732422L516.011 2.59253Z" fill="#ECECAB"/>
<path d="M293.236 56.3211C291.351 56.3211 289.689 55.9011 288.252 55.0611C286.833 54.2024 285.723 53.0171 284.92 51.5051C284.136 49.9744 283.744 48.2011 283.744 46.1851C283.744 44.1878 284.136 42.4331 284.92 40.9211C285.723 39.3904 286.833 38.1958 288.252 37.3371C289.689 36.4784 291.351 36.0491 293.236 36.0491C295.159 36.0491 296.829 36.4784 298.248 37.3371C299.667 38.1958 300.768 39.3904 301.552 40.9211C302.355 42.4331 302.756 44.1878 302.756 46.1851C302.756 48.2011 302.355 49.9744 301.552 51.5051C300.768 53.0171 299.667 54.2024 298.248 55.0611C296.829 55.9011 295.159 56.3211 293.236 56.3211ZM293.236 54.2491C294.655 54.2491 295.896 53.9318 296.96 53.2971C298.043 52.6438 298.873 51.7198 299.452 50.5251C300.049 49.3118 300.348 47.8651 300.348 46.1851C300.348 44.5051 300.049 43.0678 299.452 41.8731C298.873 40.6598 298.043 39.7358 296.96 39.1011C295.896 38.4664 294.655 38.1491 293.236 38.1491C291.836 38.1491 290.595 38.4664 289.512 39.1011C288.448 39.7358 287.617 40.6598 287.02 41.8731C286.441 43.0678 286.152 44.5051 286.152 46.1851C286.152 47.8651 286.441 49.3118 287.02 50.5251C287.617 51.7198 288.448 52.6438 289.512 53.2971C290.595 53.9318 291.836 54.2491 293.236 54.2491ZM311.168 56.3211C310.085 56.3211 309.133 56.1064 308.312 55.6771C307.509 55.2478 306.884 54.5851 306.436 53.6891C306.006 52.7931 305.792 51.6731 305.792 50.3291V41.8731H308.144V50.0771C308.144 51.4771 308.452 52.5318 309.068 53.2411C309.684 53.9504 310.552 54.3051 311.672 54.3051C312.456 54.3051 313.165 54.1184 313.8 53.7451C314.434 53.3531 314.929 52.8024 315.284 52.0931C315.657 51.3651 315.844 50.4784 315.844 49.4331V41.8731H318.196V55.9851H316.068L315.928 53.5211C315.498 54.3984 314.864 55.0891 314.024 55.5931C313.184 56.0784 312.232 56.3211 311.168 56.3211ZM322.094 55.9851V41.8731H324.222L324.39 44.5611C324.708 43.9264 325.109 43.3851 325.594 42.9371C326.098 42.4891 326.696 42.1438 327.386 41.9011C328.096 41.6584 328.898 41.5371 329.794 41.5371V44.0011H328.926C328.329 44.0011 327.76 44.0851 327.218 44.2531C326.677 44.4024 326.192 44.6544 325.762 45.0091C325.352 45.3638 325.025 45.8491 324.782 46.4651C324.558 47.0624 324.446 47.8091 324.446 48.7051V55.9851H322.094ZM340.035 55.9851V36.3851H346.419C347.969 36.3851 349.238 36.6464 350.227 37.1691C351.235 37.6731 351.973 38.3544 352.439 39.2131C352.925 40.0718 353.167 41.0518 353.167 42.1531C353.167 43.2171 352.925 44.1878 352.439 45.0651C351.973 45.9238 351.245 46.6144 350.255 47.1371C349.266 47.6598 347.987 47.9211 346.419 47.9211H342.387V55.9851H340.035ZM342.387 45.9331H346.391C347.959 45.9331 349.079 45.5878 349.751 44.8971C350.423 44.2064 350.759 43.2918 350.759 42.1531C350.759 40.9398 350.423 40.0064 349.751 39.3531C349.079 38.6811 347.959 38.3451 346.391 38.3451H342.387V45.9331ZM356.137 55.9851V41.8731H358.265L358.433 44.5611C358.751 43.9264 359.152 43.3851 359.637 42.9371C360.141 42.4891 360.739 42.1438 361.429 41.9011C362.139 41.6584 362.941 41.5371 363.837 41.5371V44.0011H362.969C362.372 44.0011 361.803 44.0851 361.261 44.2531C360.72 44.4024 360.235 44.6544 359.805 45.0091C359.395 45.3638 359.068 45.8491 358.825 46.4651C358.601 47.0624 358.489 47.8091 358.489 48.7051V55.9851H356.137ZM372.281 56.3211C370.974 56.3211 369.798 56.0224 368.753 55.4251C367.708 54.8091 366.886 53.9504 366.289 52.8491C365.692 51.7291 365.393 50.4318 365.393 48.9571C365.393 47.4451 365.692 46.1384 366.289 45.0371C366.905 43.9171 367.736 43.0584 368.781 42.4611C369.845 41.8451 371.03 41.5371 372.337 41.5371C373.681 41.5371 374.866 41.8451 375.893 42.4611C376.938 43.0584 377.76 43.9171 378.357 45.0371C378.973 46.1384 379.281 47.4358 379.281 48.9291C379.281 50.4224 378.973 51.7291 378.357 52.8491C377.741 53.9504 376.91 54.8091 375.865 55.4251C374.82 56.0224 373.625 56.3211 372.281 56.3211ZM372.309 54.3051C373.112 54.3051 373.858 54.1091 374.549 53.7171C375.24 53.3064 375.8 52.6998 376.229 51.8971C376.658 51.0944 376.873 50.1051 376.873 48.9291C376.873 47.7344 376.658 46.7451 376.229 45.9611C375.818 45.1584 375.268 44.5611 374.577 44.1691C373.905 43.7584 373.158 43.5531 372.337 43.5531C371.553 43.5531 370.806 43.7584 370.097 44.1691C369.406 44.5611 368.846 45.1584 368.417 45.9611C368.006 46.7451 367.801 47.7344 367.801 48.9291C367.801 50.1051 368.006 51.0944 368.417 51.8971C368.846 52.6998 369.397 53.3064 370.069 53.7171C370.76 54.1091 371.506 54.3051 372.309 54.3051ZM388.795 56.3211C387.432 56.3211 386.237 56.0038 385.211 55.3691C384.184 54.7158 383.391 53.8291 382.831 52.7091C382.271 51.5891 381.991 50.3198 381.991 48.9011C381.991 47.4824 382.271 46.2224 382.831 45.1211C383.391 44.0011 384.184 43.1238 385.211 42.4891C386.256 41.8544 387.46 41.5371 388.823 41.5371C389.98 41.5371 390.988 41.7704 391.847 42.2371C392.724 42.7038 393.396 43.3571 393.863 44.1971V35.8251H396.215V55.9851H394.087L393.891 53.6611C393.592 54.1278 393.209 54.5664 392.743 54.9771C392.276 55.3691 391.716 55.6958 391.063 55.9571C390.409 56.1998 389.653 56.3211 388.795 56.3211ZM389.075 54.2771C390.008 54.2771 390.829 54.0531 391.539 53.6051C392.248 53.1571 392.799 52.5411 393.191 51.7571C393.583 50.9544 393.779 50.0118 393.779 48.9291C393.779 47.8651 393.583 46.9318 393.191 46.1291C392.799 45.3264 392.248 44.7011 391.539 44.2531C390.829 43.8051 390.008 43.5811 389.075 43.5811C388.16 43.5811 387.348 43.8051 386.639 44.2531C385.929 44.7011 385.379 45.3264 384.987 46.1291C384.595 46.9318 384.399 47.8651 384.399 48.9291C384.399 50.0118 384.595 50.9544 384.987 51.7571C385.379 52.5411 385.929 53.1571 386.639 53.6051C387.348 54.0531 388.16 54.2771 389.075 54.2771ZM405.257 56.3211C404.175 56.3211 403.223 56.1064 402.401 55.6771C401.599 55.2478 400.973 54.5851 400.525 53.6891C400.096 52.7931 399.881 51.6731 399.881 50.3291V41.8731H402.233V50.0771C402.233 51.4771 402.541 52.5318 403.157 53.2411C403.773 53.9504 404.641 54.3051 405.761 54.3051C406.545 54.3051 407.255 54.1184 407.889 53.7451C408.524 53.3531 409.019 52.8024 409.373 52.0931C409.747 51.3651 409.933 50.4784 409.933 49.4331V41.8731H412.285V55.9851H410.157L410.017 53.5211C409.588 54.3984 408.953 55.0891 408.113 55.5931C407.273 56.0784 406.321 56.3211 405.257 56.3211ZM422.54 56.3211C421.215 56.3211 420.02 56.0131 418.956 55.3971C417.911 54.7811 417.09 53.9224 416.492 52.8211C415.895 51.7011 415.596 50.4131 415.596 48.9571C415.596 47.4638 415.895 46.1664 416.492 45.0651C417.09 43.9638 417.911 43.1051 418.956 42.4891C420.02 41.8544 421.215 41.5371 422.54 41.5371C424.22 41.5371 425.62 41.9758 426.74 42.8531C427.86 43.7118 428.57 44.8691 428.868 46.3251H426.46C426.274 45.4478 425.816 44.7664 425.088 44.2811C424.36 43.7958 423.502 43.5531 422.512 43.5531C421.71 43.5531 420.963 43.7584 420.272 44.1691C419.582 44.5611 419.031 45.1584 418.62 45.9611C418.21 46.7638 418.004 47.7531 418.004 48.9291C418.004 49.8064 418.126 50.5904 418.368 51.2811C418.611 51.9531 418.938 52.5131 419.348 52.9611C419.759 53.4091 420.235 53.7544 420.776 53.9971C421.336 54.2211 421.915 54.3331 422.512 54.3331C423.184 54.3331 423.791 54.2304 424.332 54.0251C424.874 53.8011 425.331 53.4744 425.704 53.0451C426.078 52.6158 426.33 52.1118 426.46 51.5331H428.868C428.57 52.9518 427.851 54.1091 426.712 55.0051C425.592 55.8824 424.202 56.3211 422.54 56.3211ZM437.369 55.9851C436.529 55.9851 435.801 55.8544 435.185 55.5931C434.569 55.3318 434.093 54.8931 433.757 54.2771C433.44 53.6424 433.281 52.7931 433.281 51.7291V43.8611H430.817V41.8731H433.281L433.589 38.4571H435.633V41.8731H439.721V43.8611H435.633V51.7291C435.633 52.6064 435.81 53.2038 436.165 53.5211C436.52 53.8198 437.145 53.9691 438.041 53.9691H439.553V55.9851H437.369ZM448.11 56.3211C446.934 56.3211 445.907 56.1251 445.03 55.7331C444.171 55.3411 443.48 54.7998 442.958 54.1091C442.454 53.3998 442.146 52.5691 442.034 51.6171H444.442C444.535 52.1024 444.731 52.5504 445.03 52.9611C445.328 53.3718 445.73 53.7078 446.234 53.9691C446.756 54.2118 447.391 54.3331 448.138 54.3331C448.791 54.3331 449.332 54.2398 449.762 54.0531C450.191 53.8478 450.508 53.5771 450.714 53.2411C450.938 52.9051 451.05 52.5411 451.05 52.1491C451.05 51.5704 450.91 51.1318 450.63 50.8331C450.368 50.5344 449.976 50.3011 449.454 50.1331C448.931 49.9464 448.296 49.7878 447.55 49.6571C446.934 49.5451 446.327 49.3958 445.73 49.2091C445.132 49.0224 444.6 48.7798 444.134 48.4811C443.667 48.1638 443.294 47.7811 443.014 47.3331C442.752 46.8851 442.622 46.3344 442.622 45.6811C442.622 44.8784 442.827 44.1691 443.238 43.5531C443.648 42.9184 444.236 42.4238 445.002 42.0691C445.786 41.7144 446.691 41.5371 447.718 41.5371C449.23 41.5371 450.452 41.9011 451.386 42.6291C452.319 43.3571 452.87 44.4118 453.038 45.7931H450.714C450.62 45.0838 450.312 44.5331 449.79 44.1411C449.286 43.7304 448.586 43.5251 447.69 43.5251C446.812 43.5251 446.14 43.7024 445.674 44.0571C445.226 44.4118 445.002 44.8784 445.002 45.4571C445.002 45.8304 445.123 46.1664 445.366 46.4651C445.627 46.7451 446 46.9878 446.486 47.1931C446.99 47.3984 447.606 47.5664 448.334 47.6971C449.267 47.8651 450.116 48.0891 450.882 48.3691C451.647 48.6491 452.263 49.0691 452.73 49.6291C453.215 50.1704 453.458 50.9451 453.458 51.9531C453.458 52.8304 453.234 53.5958 452.786 54.2491C452.356 54.9024 451.74 55.4158 450.938 55.7891C450.135 56.1438 449.192 56.3211 448.11 56.3211Z" fill="black"/>
</svg>
