<svg width="1440" height="179" viewBox="0 0 1440 179" fill="none" xmlns="http://www.w3.org/2000/svg">
<path d="M1160.8 3.54333C1169.65 3.62539 1177.4 9.52275 1179.84 18.0375L1193.93 67.2416H1420C1431.05 67.2417 1440 76.196 1440 87.2416V158.683C1440 169.729 1431.05 178.683 1420 178.683H20C8.95431 178.683 0 169.729 0 158.683V87.2416C7.61887e-05 76.1959 8.95435 67.2416 20 67.2416H826.545L846.955 13.6869C849.934 5.87007 857.464 0.733416 865.829 0.810913L1160.8 3.54333Z" fill="#9DB5B2"/>
<path d="M991.656 53.5659C990.312 53.5659 989.089 53.2952 987.988 52.7539C986.905 52.2125 986.037 51.3912 985.384 50.2899C984.731 49.1699 984.404 47.7419 984.404 46.0059V33.6299H986.756V46.0339C986.756 47.3032 986.961 48.3392 987.372 49.1419C987.801 49.9445 988.389 50.5325 989.136 50.9059C989.883 51.2792 990.741 51.4659 991.712 51.4659C992.701 51.4659 993.56 51.2792 994.288 50.9059C995.016 50.5325 995.585 49.9445 995.996 49.1419C996.407 48.3392 996.612 47.3032 996.612 46.0339V33.6299H998.964V46.0059C998.964 47.7419 998.637 49.1699 997.984 50.2899C997.331 51.3912 996.453 52.2125 995.352 52.7539C994.251 53.2952 993.019 53.5659 991.656 53.5659ZM1001.91 53.2299L1007.9 43.3459L1001.91 33.6299H1004.57L1009.39 41.4419L1013.98 33.6299H1016.61L1010.62 43.4299L1016.64 53.2299H1013.98L1009.14 45.3339L1004.57 53.2299H1001.91ZM1018.5 55.8899L1025.53 31.8379H1027.85L1020.83 55.8899H1018.5ZM1037.84 53.5659C1036.5 53.5659 1035.27 53.2952 1034.17 52.7539C1033.09 52.2125 1032.22 51.3912 1031.57 50.2899C1030.91 49.1699 1030.59 47.7419 1030.59 46.0059V33.6299H1032.94V46.0339C1032.94 47.3032 1033.14 48.3392 1033.56 49.1419C1033.98 49.9445 1034.57 50.5325 1035.32 50.9059C1036.07 51.2792 1036.92 51.4659 1037.9 51.4659C1038.88 51.4659 1039.74 51.2792 1040.47 50.9059C1041.2 50.5325 1041.77 49.9445 1042.18 49.1419C1042.59 48.3392 1042.8 47.3032 1042.8 46.0339V33.6299H1045.15V46.0059C1045.15 47.7419 1044.82 49.1699 1044.17 50.2899C1043.51 51.3912 1042.64 52.2125 1041.54 52.7539C1040.43 53.2952 1039.2 53.5659 1037.84 53.5659ZM1049.13 53.2299V33.6299H1051.48V53.2299H1049.13Z" fill="black"/>
</svg>
