<svg width="1440" height="199" viewBox="0 0 1440 199" fill="none" xmlns="http://www.w3.org/2000/svg">
<path d="M1345.6 3.04688C1354.66 3.14073 1362.52 9.31069 1364.77 18.0859L1379.15 74.291H1420C1431.05 74.2911 1440 83.2455 1440 94.291V178.93C1440 189.975 1431.05 198.93 1420 198.93H20C8.95431 198.93 0 189.975 0 178.93V94.291C0.000148437 83.2454 8.9544 74.291 20 74.291H1011.77L1032.47 13.5488C1035.26 5.37468 1042.97 -0.0884985 1051.61 0.000976562L1345.6 3.04688Z" fill="#F19A3E"/>
<path d="M1131.92 51.9298L1126.52 32.2315H1129.05L1133.3 49.1158L1138.12 32.2315H1140.76L1145.46 49.1721L1149.77 32.2315H1152.3L1146.78 51.9298H1144.08L1139.38 35.6365L1134.57 51.9298H1131.92ZM1159.76 52.2675C1158.42 52.2675 1157.24 51.9579 1156.21 51.3389C1155.2 50.7198 1154.4 49.8568 1153.82 48.7499C1153.24 47.6243 1152.95 46.3205 1152.95 44.8384C1152.95 43.3376 1153.23 42.0338 1153.79 40.9269C1154.37 39.8201 1155.18 38.9571 1156.21 38.338C1157.26 37.7189 1158.46 37.4094 1159.81 37.4094C1161.2 37.4094 1162.37 37.7189 1163.33 38.338C1164.3 38.9571 1165.05 39.7732 1165.55 40.7862C1166.08 41.7805 1166.34 42.878 1166.34 44.0786C1166.34 44.2662 1166.34 44.4632 1166.34 44.6696C1166.34 44.876 1166.33 45.1105 1166.31 45.3731H1154.72V43.544H1164.03C1163.98 42.2495 1163.55 41.2365 1162.74 40.5048C1161.95 39.7732 1160.96 39.4073 1159.76 39.4073C1158.95 39.4073 1158.2 39.5949 1157.5 39.9701C1156.83 40.3266 1156.28 40.8613 1155.87 41.5741C1155.46 42.2683 1155.25 43.1406 1155.25 44.1912V44.9791C1155.25 46.1423 1155.46 47.1178 1155.87 47.9057C1156.3 48.6937 1156.86 49.2846 1157.53 49.6786C1158.23 50.0725 1158.97 50.2695 1159.76 50.2695C1160.75 50.2695 1161.57 50.0538 1162.2 49.6223C1162.86 49.1721 1163.33 48.5717 1163.61 47.8213H1165.95C1165.72 48.6655 1165.33 49.4253 1164.76 50.1007C1164.2 50.7761 1163.5 51.3107 1162.65 51.7047C1161.83 52.0799 1160.86 52.2675 1159.76 52.2675ZM1176.96 52.2675C1176.15 52.2675 1175.42 52.1549 1174.76 51.9298C1174.13 51.6859 1173.56 51.367 1173.08 50.973C1172.59 50.5791 1172.18 50.1194 1171.87 49.5942L1171.67 51.9298H1169.53V31.6687H1171.89V40.0827C1172.34 39.3511 1172.99 38.7226 1173.84 38.1973C1174.68 37.672 1175.72 37.4094 1176.96 37.4094C1178.33 37.4094 1179.53 37.7377 1180.56 38.3943C1181.59 39.0321 1182.39 39.9139 1182.95 41.0395C1183.53 42.1463 1183.83 43.4127 1183.83 44.8384C1183.83 46.2642 1183.53 47.5399 1182.95 48.6655C1182.39 49.7911 1181.59 50.6729 1180.56 51.3107C1179.53 51.9486 1178.33 52.2675 1176.96 52.2675ZM1176.68 50.2132C1177.6 50.2132 1178.41 49.9881 1179.13 49.5379C1179.84 49.0876 1180.39 48.4685 1180.79 47.6806C1181.2 46.8739 1181.41 45.9265 1181.41 44.8384C1181.41 43.7691 1181.2 42.8311 1180.79 42.0244C1180.39 41.2177 1179.84 40.5892 1179.13 40.139C1178.41 39.6887 1177.6 39.4636 1176.68 39.4636C1175.74 39.4636 1174.91 39.6887 1174.2 40.139C1173.49 40.5892 1172.94 41.2177 1172.54 42.0244C1172.15 42.8311 1171.95 43.7691 1171.95 44.8384C1171.95 45.9265 1172.15 46.8739 1172.54 47.6806C1172.94 48.4685 1173.49 49.0876 1174.2 49.5379C1174.91 49.9881 1175.74 50.2132 1176.68 50.2132ZM1194.76 51.9298V32.2315H1200.56C1202.87 32.2315 1204.76 32.6349 1206.24 33.4416C1207.74 34.2295 1208.85 35.3645 1209.56 36.8466C1210.29 38.3099 1210.66 40.0733 1210.66 42.137C1210.66 44.1631 1210.29 45.9078 1209.56 47.3711C1208.85 48.8344 1207.74 49.96 1206.24 50.7479C1204.76 51.5358 1202.87 51.9298 1200.56 51.9298H1194.76ZM1197.12 49.96H1200.5C1202.42 49.96 1203.93 49.6504 1205.06 49.0314C1206.19 48.3935 1206.99 47.493 1207.48 46.3299C1207.97 45.148 1208.21 43.7503 1208.21 42.137C1208.21 40.4861 1207.97 39.0697 1207.48 37.8878C1206.99 36.7059 1206.19 35.796 1205.06 35.1581C1203.93 34.5203 1202.42 34.2014 1200.5 34.2014H1197.12V49.96ZM1220.21 52.2675C1218.88 52.2675 1217.7 51.9579 1216.67 51.3389C1215.65 50.7198 1214.86 49.8568 1214.28 48.7499C1213.69 47.6243 1213.4 46.3205 1213.4 44.8384C1213.4 43.3376 1213.68 42.0338 1214.25 40.9269C1214.83 39.8201 1215.64 38.9571 1216.67 38.338C1217.72 37.7189 1218.92 37.4094 1220.27 37.4094C1221.66 37.4094 1222.83 37.7189 1223.79 38.338C1224.76 38.9571 1225.5 39.7732 1226.01 40.7862C1226.54 41.7805 1226.8 42.878 1226.8 44.0786C1226.8 44.2662 1226.8 44.4632 1226.8 44.6696C1226.8 44.876 1226.79 45.1105 1226.77 45.3731H1215.18V43.544H1224.49C1224.43 42.2495 1224 41.2365 1223.2 40.5048C1222.41 39.7732 1221.41 39.4073 1220.21 39.4073C1219.41 39.4073 1218.66 39.5949 1217.96 39.9701C1217.29 40.3266 1216.74 40.8613 1216.33 41.5741C1215.92 42.2683 1215.71 43.1406 1215.71 44.1912V44.9791C1215.71 46.1423 1215.92 47.1178 1216.33 47.9057C1216.76 48.6937 1217.31 49.2846 1217.99 49.6786C1218.68 50.0725 1219.43 50.2695 1220.21 50.2695C1221.21 50.2695 1222.02 50.0538 1222.66 49.6223C1223.32 49.1721 1223.79 48.5717 1224.07 47.8213H1226.4C1226.18 48.6655 1225.79 49.4253 1225.22 50.1007C1224.66 50.7761 1223.96 51.3107 1223.11 51.7047C1222.29 52.0799 1221.32 52.2675 1220.21 52.2675ZM1235.33 52.2675C1234.15 52.2675 1233.12 52.0705 1232.24 51.6765C1231.38 51.2826 1230.68 50.7385 1230.16 50.0444C1229.65 49.3315 1229.34 48.4967 1229.23 47.5399H1231.65C1231.74 48.0277 1231.94 48.4779 1232.24 48.8906C1232.54 49.3034 1232.94 49.6411 1233.45 49.9037C1233.97 50.1476 1234.61 50.2695 1235.36 50.2695C1236.02 50.2695 1236.56 50.1757 1237 49.9881C1237.43 49.7818 1237.75 49.5097 1237.95 49.1721C1238.18 48.8344 1238.29 48.4685 1238.29 48.0746C1238.29 47.493 1238.15 47.0521 1237.87 46.752C1237.6 46.4518 1237.21 46.2173 1236.69 46.0485C1236.16 45.8609 1235.52 45.7014 1234.77 45.5701C1234.15 45.4575 1233.54 45.3074 1232.94 45.1198C1232.34 44.9322 1231.81 44.6884 1231.34 44.3882C1230.87 44.0693 1230.49 43.6847 1230.21 43.2344C1229.95 42.7842 1229.82 42.2308 1229.82 41.5741C1229.82 40.7675 1230.03 40.0546 1230.44 39.4355C1230.85 38.7976 1231.44 38.3005 1232.21 37.944C1233 37.5876 1233.91 37.4094 1234.94 37.4094C1236.46 37.4094 1237.69 37.7752 1238.63 38.5068C1239.57 39.2385 1240.12 40.2985 1240.29 41.6867H1237.95C1237.86 40.9738 1237.55 40.4204 1237.02 40.0264C1236.52 39.6137 1235.81 39.4073 1234.91 39.4073C1234.03 39.4073 1233.36 39.5856 1232.89 39.942C1232.44 40.2985 1232.21 40.7675 1232.21 41.349C1232.21 41.7242 1232.33 42.0619 1232.58 42.3621C1232.84 42.6435 1233.22 42.8874 1233.7 43.0937C1234.21 43.3001 1234.83 43.4689 1235.56 43.6003C1236.5 43.7691 1237.35 43.9942 1238.12 44.2756C1238.89 44.557 1239.51 44.9791 1239.98 45.5419C1240.47 46.086 1240.71 46.8645 1240.71 47.8776C1240.71 48.7593 1240.48 49.5285 1240.03 50.1851C1239.6 50.8417 1238.98 51.3576 1238.18 51.7328C1237.37 52.0893 1236.42 52.2675 1235.33 52.2675ZM1244.34 51.9298V37.7471H1246.7V51.9298H1244.34ZM1245.52 34.736C1245.05 34.736 1244.66 34.586 1244.34 34.2858C1244.04 33.9669 1243.89 33.5729 1243.89 33.1039C1243.89 32.6349 1244.04 32.2597 1244.34 31.9783C1244.66 31.6781 1245.05 31.528 1245.52 31.528C1245.97 31.528 1246.36 31.6781 1246.67 31.9783C1246.99 32.2597 1247.15 32.6349 1247.15 33.1039C1247.15 33.5729 1246.99 33.9669 1246.67 34.2858C1246.36 34.586 1245.97 34.736 1245.52 34.736ZM1256.47 58.4584C1255.2 58.4584 1254.06 58.2895 1253.07 57.9519C1252.09 57.6329 1251.33 57.1358 1250.79 56.4604C1250.25 55.785 1249.97 54.9502 1249.97 53.9559C1249.97 53.5244 1250.06 53.0648 1250.23 52.577C1250.41 52.0893 1250.72 51.6109 1251.16 51.1419C1251.61 50.6729 1252.23 50.2508 1253.04 49.8756L1254.67 50.8323C1253.68 51.2451 1253.03 51.7141 1252.73 52.2394C1252.43 52.7834 1252.28 53.2805 1252.28 53.7308C1252.28 54.3499 1252.46 54.8658 1252.82 55.2785C1253.17 55.6912 1253.67 56.0008 1254.31 56.2071C1254.94 56.4135 1255.67 56.5167 1256.47 56.5167C1257.28 56.5167 1257.97 56.4041 1258.56 56.179C1259.14 55.9539 1259.59 55.635 1259.91 55.2222C1260.23 54.8095 1260.39 54.3217 1260.39 53.7589C1260.39 53.1023 1260.14 52.5489 1259.65 52.0987C1259.17 51.6672 1258.24 51.4139 1256.87 51.3389C1255.76 51.2638 1254.83 51.1606 1254.08 51.0293C1253.33 50.898 1252.71 50.7479 1252.22 50.5791C1251.74 50.3915 1251.32 50.1851 1250.99 49.96C1250.67 49.7349 1250.38 49.5004 1250.11 49.2565V48.6092L1252.84 45.9078L1254.9 46.6394L1252.08 49.1721L1252.45 48.1871C1252.66 48.3372 1252.85 48.4779 1253.04 48.6092C1253.23 48.7406 1253.48 48.8531 1253.8 48.9469C1254.12 49.0407 1254.56 49.1252 1255.12 49.2002C1255.7 49.2752 1256.46 49.3503 1257.4 49.4253C1258.7 49.5191 1259.73 49.7442 1260.5 50.1007C1261.29 50.4571 1261.85 50.9355 1262.19 51.5358C1262.54 52.1362 1262.72 52.8491 1262.72 53.6745C1262.72 54.4812 1262.5 55.241 1262.05 55.9539C1261.61 56.6855 1260.94 57.2859 1260.02 57.7549C1259.1 58.2239 1257.92 58.4584 1256.47 58.4584ZM1256.45 47.4836C1255.26 47.4836 1254.25 47.2585 1253.41 46.8083C1252.58 46.358 1251.95 45.7577 1251.52 45.0073C1251.09 44.2381 1250.87 43.3845 1250.87 42.4465C1250.87 41.5085 1251.09 40.6643 1251.52 39.9139C1251.97 39.1635 1252.61 38.5631 1253.43 38.1129C1254.26 37.6439 1255.26 37.4094 1256.45 37.4094C1257.63 37.4094 1258.63 37.6439 1259.46 38.1129C1260.28 38.5631 1260.91 39.1635 1261.34 39.9139C1261.77 40.6643 1261.99 41.5085 1261.99 42.4465C1261.99 43.3845 1261.77 44.2381 1261.34 45.0073C1260.91 45.7577 1260.28 46.358 1259.46 46.8083C1258.63 47.2585 1257.63 47.4836 1256.45 47.4836ZM1256.45 45.5419C1257.46 45.5419 1258.26 45.2793 1258.84 44.754C1259.42 44.2287 1259.71 43.4596 1259.71 42.4465C1259.71 41.4522 1259.42 40.6924 1258.84 40.1671C1258.26 39.6418 1257.46 39.3792 1256.45 39.3792C1255.45 39.3792 1254.64 39.6418 1254.03 40.1671C1253.43 40.6924 1253.12 41.4522 1253.12 42.4465C1253.12 43.4596 1253.43 44.2287 1254.03 44.754C1254.63 45.2793 1255.43 45.5419 1256.45 45.5419ZM1258.75 39.745L1258.05 37.7471H1263.85V39.5199L1258.75 39.745ZM1266.57 51.9298V37.7471H1268.7L1268.82 40.2234C1269.27 39.3417 1269.9 38.6569 1270.73 38.1692C1271.57 37.6626 1272.53 37.4094 1273.6 37.4094C1274.71 37.4094 1275.66 37.6345 1276.47 38.0847C1277.28 38.5162 1277.91 39.1822 1278.36 40.0827C1278.81 40.9644 1279.03 42.0901 1279.03 43.4596V51.9298H1276.67V43.7128C1276.67 42.287 1276.35 41.2177 1275.71 40.5048C1275.09 39.7919 1274.21 39.4355 1273.07 39.4355C1272.28 39.4355 1271.57 39.6325 1270.96 40.0264C1270.34 40.4016 1269.84 40.9551 1269.46 41.6867C1269.11 42.3996 1268.93 43.2907 1268.93 44.36V51.9298H1266.57Z" fill="black"/>
</svg>
